<svg xmlns="http://www.w3.org/2000/svg" xmlns:xlink="http://www.w3.org/1999/xlink" width="660" height="485" viewBox="0 0 660 485" role="img" aria-hidden="true" focusable="false"><title></title> <defs> <path id="rustconf-logo-a" d="M66.1936111,438.117545 L69.4862793,438.117545 C85.5784823,439.185156 109.161533,432.944543 123.01901,420.133285 L123.01901,181.766105 L59.0979777,181.766105 C50.044999,168.776223 38.7770797,161.203651 24.5961426,160.75575 L21.121466,160.75575 C61.2172415,66.5411031 154.641641,0.483732537 263.494565,0.483732537 C408.905732,0.483732537 526.784773,118.362774 526.784773,263.77394 C526.784773,409.185107 408.905732,527.064148 263.494565,527.064148 C184.94738,527.064148 114.433708,492.668592 66.1936111,438.117545 Z M10.9086466,338.328159 C3.94252278,314.689986 0.20435747,289.668511 0.20435747,263.77394 C0.20435747,237.87937 3.94252278,212.857895 10.9086466,189.219721 L10.9086466,338.328159 Z"></path> </defs> <g fill="none" fill-rule="evenodd" transform="translate(0 -19)"> <g transform="translate(153)"> <mask id="rustconf-logo-b" fill="#fff"> <use xlink:href="#rustconf-logo-a"></use> </mask> <g mask="url(#rustconf-logo-b)"> <path fill="#FDA28C" id="rustconf-logo-gear" fill-rule="nonzero" d="M506.078475,278.612346 C505.872397,281.703514 504.066704,284.468482 501.316448,285.894505 L481.265572,296.43358 C481.089627,297.575431 480.882632,298.779259 480.590622,300.389278 L496.028775,316.930333 C498.174229,319.177951 498.966792,322.404817 498.1399,325.4023 C497.318536,328.379748 495.010186,330.730323 492.048976,331.598257 L470.300205,338.035283 C470.215036,338.260881 470.104835,338.553297 469.947562,338.970715 C469.483263,340.203004 469.167089,341.030274 468.870433,341.77599 L480.781917,361.070313 C482.415206,363.724408 482.569334,367.003136 481.185474,369.770855 C479.807819,372.526165 477.104071,374.375361 474.012345,374.684452 L451.392891,376.740766 C450.476205,378.218251 449.886631,379.156645 449.305333,380.055112 L457.262813,401.338579 C458.333572,404.244923 457.830601,407.472316 455.936583,409.92942 C454.048366,412.379 451.031709,413.669848 447.939887,413.360628 L425.36594,410.962384 C424.463128,411.935969 423.560196,412.892107 422.657139,413.830798 L426.272482,436.246089 C426.783652,439.313111 425.662799,442.395458 423.322779,444.430101 C421.012767,446.483445 417.780399,447.160972 414.801076,446.236354 L393.152566,439.502107 C392.118022,440.263436 391.035532,441.033788 389.889395,441.82649 L389.090271,464.468247 C388.988075,467.53411 387.267345,470.354979 384.57836,471.906239 C381.866384,473.44132 378.586651,473.483368 375.880837,472.002817 L355.972573,461.19221 C354.980387,461.646175 353.947817,462.102854 352.314436,462.814826 L347.096688,484.866391 C346.377477,487.84598 344.129996,490.291352 341.243165,491.253369 C338.309804,492.282618 335.020969,491.670411 332.661298,489.669735 L315.231704,475.132388 C313.929432,475.448519 312.647302,475.740772 311.370286,476.011892 L301.933706,496.673428 C300.656683,499.482879 298.004368,501.433523 294.931212,501.843278 C291.856245,502.253273 288.780959,501.02598 286.83049,498.613558 L272.552833,480.947338 C271.937962,480.968418 271.290339,480.987299 270.587623,481.005044 C269.974882,481.020517 269.497145,481.031365 268.634124,481.049339 L255.349306,499.472952 C253.56103,501.976537 250.554268,503.374047 247.46692,503.168224 C244.375752,502.962146 241.610785,501.156453 240.184761,498.406197 L229.645686,478.355321 C228.503476,478.17932 227.29925,477.97225 225.68847,477.680095 L209.148933,493.078771 C206.901315,495.224225 203.674449,496.016789 200.676966,495.189897 C197.699518,494.368532 195.348943,492.060183 194.481009,489.098972 L188.043066,467.347102 C186.375692,466.708062 185.324538,466.30345 184.317347,465.911743 L165.008953,477.831913 C162.354858,479.465202 159.076131,479.61933 156.308411,478.23547 C153.528527,476.845528 151.649459,474.118762 151.394814,471.062341 L149.3385,448.442887 C147.861015,447.526201 146.922621,446.936627 146.024154,446.355329 L124.740688,454.312809 C121.834343,455.383568 118.606951,454.880598 116.149846,452.986579 C113.700266,451.098362 112.409418,448.081705 112.718638,444.989884 L115.116609,422.418507 C114.815469,422.141414 114.639235,421.978626 114.394908,421.752232 C113.571087,420.988875 112.878827,420.335133 112.23744,419.710615 L89.8331771,423.362231 C86.7661549,423.873401 83.6838081,422.752548 81.649165,420.412527 C79.5958214,418.102516 78.9182945,414.870147 79.8429125,411.890824 L86.5771588,390.242315 C85.81583,389.207771 85.0454777,388.125281 84.2527766,386.979144 L61.6110194,386.180019 C58.5201817,386.076991 55.704322,384.373396 54.173027,381.668109 C52.6379465,378.956133 52.5958986,375.676399 54.0764497,372.970586 L64.887056,353.062321 C64.433091,352.070135 63.9764123,351.037566 63.2644401,349.404184 L41.2128748,344.186437 C38.2332865,343.467226 35.7879141,341.219745 34.825897,338.332913 C33.7966478,335.399553 34.4088553,332.110718 36.4095309,329.751047 L50.946878,312.321453 C50.630747,311.01918 50.3384946,309.73705 50.0673746,308.460035 L29.4058382,299.023455 C26.5963868,297.746431 24.6457428,295.094117 24.2359887,292.020961 C23.825993,288.945993 25.0532861,285.870707 27.4657078,283.920239 L45.1319285,269.642582 C45.1108477,269.027711 45.0919676,268.380088 45.0742222,267.677372 C45.058749,267.064631 45.0479013,266.586893 45.0299267,265.723873 L26.6063145,252.439055 C24.1027288,250.650779 22.7052194,247.644016 22.9110426,244.556669 C23.1171205,241.465501 24.9228136,238.700533 27.6730692,237.27451 L47.7239453,226.735435 C47.8998909,225.593584 48.1068859,224.389756 48.3988956,222.779737 L32.9607425,206.238682 C30.8152887,203.991064 30.0227252,200.764198 30.849617,197.766715 C31.6709819,194.789267 33.9793311,192.438692 36.9405415,191.570758 L58.6923733,185.132825 C59.1035694,184.059755 59.343438,183.435503 59.6289226,182.695781 C59.8023457,182.246422 59.9678479,181.818985 60.1278798,181.407272 L48.2076009,162.098702 C46.5743118,159.444607 46.4201835,156.165879 47.8040433,153.39816 C49.181698,150.64285 51.8854469,148.793654 54.9771722,148.484563 L77.5966263,146.428249 C78.5133127,144.950764 79.1028867,144.01237 79.6841844,143.113903 L71.7267043,121.830436 C70.6559459,118.924092 71.1589162,115.696699 73.0529344,113.239595 C74.9411519,110.790015 77.957809,109.499166 81.0496302,109.808387 L103.623577,112.206631 C104.52591,111.233563 105.428363,110.277923 106.33094,109.339711 L102.677283,86.9229258 C102.166113,83.8559036 103.286966,80.7735567 105.626986,78.7389137 C107.936998,76.6855701 111.169366,76.0080431 114.148689,76.9326611 L135.797199,83.6669075 C136.831743,82.9055787 137.914233,82.1352264 139.06037,81.3425253 L139.859494,58.7007681 C139.962522,55.6099303 141.666117,52.7940706 144.371405,51.2627756 C147.083381,49.7276951 150.363115,49.6856473 153.068928,51.1661983 L172.977192,61.9768047 C173.969378,61.5228398 175.001947,61.0661612 176.635328,60.3541892 L181.851276,38.31015 C182.566583,35.295641 184.80923,32.8414232 187.7066,31.8758932 C190.639961,30.846644 193.928796,31.4588514 196.288467,33.4595271 L213.718061,47.9968742 C215.020333,47.6807432 216.302463,47.3884908 217.579479,47.1173708 L227.016059,26.4558344 C228.293082,23.646383 230.945397,21.695739 234.018553,21.2859849 C237.09352,20.8759892 240.168806,22.1032823 242.119275,24.515704 L256.396932,42.1819247 C257.011803,42.1608439 257.659426,42.1419638 258.362142,42.1242184 C258.974883,42.1087452 259.452621,42.0978975 260.315641,42.0799229 L273.600459,23.6563107 C275.388735,21.152725 278.395497,19.7552156 281.482845,19.9610388 C284.574013,20.1671167 287.33898,21.9728098 288.765004,24.7230654 L299.304079,44.7739415 C300.44593,44.9498871 301.649758,45.1568821 303.259777,45.4488918 L319.800832,30.0107387 C322.04845,27.8652849 325.275316,27.0727213 328.272799,27.8996132 C331.250247,28.7209781 333.600822,31.0293273 334.468756,33.9905377 L340.9067,55.7424076 C342.574073,56.381448 343.625227,56.7860597 344.632418,57.1777671 L363.940812,45.257597 C366.594907,43.6243079 369.873634,43.4701797 372.641354,44.8540395 C375.396663,46.2316942 377.24586,48.9354431 377.554951,52.0271684 L379.611265,74.6466225 C381.08875,75.5633089 382.027144,76.1528829 382.925611,76.7341806 L404.209077,68.7767005 C407.115422,67.7059421 410.342814,68.2089124 412.799919,70.1029306 C415.249499,71.9911481 416.540347,75.0078052 416.231127,78.0996264 L413.832883,100.673573 C414.805951,101.575906 415.761591,102.478359 416.699802,103.380936 L439.116588,99.7272791 C442.18361,99.2161088 445.265957,100.336962 447.3006,102.676983 C449.353944,104.986994 450.031471,108.219362 449.106853,111.198686 L442.372606,132.847195 C443.133935,133.881739 443.904287,134.964229 444.696988,136.110366 L467.338746,136.90949 C470.429583,137.012518 473.245443,138.716114 474.776738,141.421401 C476.311819,144.133377 476.353866,147.413111 474.873315,150.118924 L464.062709,170.027189 C464.516674,171.019374 464.973353,172.051943 465.685325,173.685325 L487.729364,178.901272 C490.743873,179.616579 493.198091,181.859227 494.163621,184.756597 C495.190167,187.682254 494.584281,190.923042 492.579987,193.338463 L478.04264,210.768057 C478.35877,212.070329 478.651023,213.352459 478.922143,214.629475 L499.583679,224.066055 C502.393131,225.343078 504.343775,227.995393 504.753529,231.068549 C505.163525,234.143516 503.936231,237.218803 501.52381,239.169271 L483.857589,253.446928 C483.87867,254.061799 483.89755,254.709422 483.915295,255.412138 C483.930769,256.024879 483.941616,256.502616 483.959591,257.365636 L502.387081,270.653227 C504.906068,272.454545 506.280679,275.427783 506.078475,278.612346 Z M48.4241248,272.12489 L29.9802945,287.031003 C28.6524513,288.104578 27.9754044,289.801087 28.2009003,291.492306 C28.4293281,293.205515 29.5122633,294.677995 31.0643301,295.383484 L53.5752344,305.664707 L53.7786442,306.661415 C54.1605348,308.532679 54.5881678,310.408433 55.0711527,312.340372 L55.317597,313.326149 L54.6667603,314.106472 L39.4709375,332.325446 C38.3768891,333.615862 38.041696,335.41655 38.6104635,337.038282 C39.1466653,338.646888 40.5129573,339.902613 42.1426698,340.296012 L66.1337364,345.972655 L66.532977,346.890909 C67.7184801,349.617566 68.2504192,350.819354 68.9361039,352.288678 L69.3625907,353.202579 L68.8813237,354.088856 L57.5885602,374.885015 C56.7735013,376.374605 56.7966862,378.183032 57.6540544,379.697716 C58.4984971,381.189564 60.045697,382.12562 61.7481934,382.182374 L86.4116182,383.052848 L86.9819716,383.888008 C88.1633436,385.617874 89.2844222,387.193183 90.3888346,388.665733 L91.0022366,389.483602 L90.6985693,390.459798 L83.6627754,413.077688 C83.1510412,414.726609 83.5226246,416.499372 84.6531947,417.771442 C85.7935483,419.082849 87.4859362,419.698263 89.1826483,419.41549 L113.608219,415.434413 L114.332798,416.158992 C115.145113,416.971307 116.002134,417.78828 117.113614,418.818183 C117.502433,419.178465 117.717623,419.376538 118.565102,420.155303 L119.307121,420.837158 L119.20066,421.839248 L116.69752,445.400181 C116.526588,447.109501 117.239842,448.776345 118.591877,449.818539 C119.962763,450.875263 121.746215,451.153203 123.348867,450.562777 L146.522263,441.898663 L147.37089,442.457515 C148.70825,443.338215 149.804206,444.02729 152.292677,445.567772 L153.141384,446.093162 L153.231754,447.08723 L155.379692,470.715179 C155.51866,472.382794 156.554972,473.886615 158.097265,474.657762 C159.623434,475.420846 161.432999,475.335781 162.91013,474.42678 L183.914241,461.459745 L184.84406,461.823587 C186.361887,462.417519 187.597893,462.893415 190.395902,463.964993 L191.31811,464.318179 L191.598373,465.265101 L198.318032,487.968826 C198.79735,489.604146 200.097068,490.880515 201.740682,491.333926 C203.390595,491.789075 205.162992,491.353749 206.405145,490.168272 L224.433075,473.383647 L225.42161,473.565215 C228.033437,474.044938 229.597183,474.31346 231.226516,474.546222 L232.238433,474.690782 L232.714019,475.595597 L243.730616,496.555039 C244.5173,498.072215 246.035883,499.063942 247.732996,499.177083 C249.447551,499.291387 251.117935,498.515011 252.099597,497.140718 L266.556894,477.091058 L267.554644,477.070695 C269.108423,477.038986 269.680705,477.026671 270.486645,477.006319 C271.564188,476.979108 272.506752,476.94928 273.397253,476.912933 L274.402148,476.871917 L275.034321,477.654127 L289.941254,496.098972 C291.01483,497.426815 292.711338,498.103862 294.402557,497.878366 C296.115766,497.649938 297.588246,496.567003 298.293735,495.014936 L308.574958,472.504032 L309.571666,472.300622 C311.44293,471.918731 313.318684,471.491098 315.250623,471.008114 L316.2364,470.761669 L317.016723,471.412506 L335.235697,486.608329 C336.526113,487.702377 338.326801,488.03757 339.948534,487.468803 C341.557139,486.932601 342.812864,485.566309 343.206264,483.936596 L348.882906,459.94553 L349.80116,459.546289 C352.527817,458.360786 353.729605,457.828847 355.19893,457.143162 L356.11283,456.716675 L356.999107,457.197942 L377.795266,468.490706 C379.284857,469.305765 381.093283,469.28258 382.593719,468.433354 C384.080842,467.575399 385.036711,466.0084 385.092625,464.331073 L385.963099,439.667648 L386.79826,439.097295 C388.528126,437.915923 390.103434,436.794844 391.575984,435.690432 L392.393854,435.07703 L393.370049,435.380697 L415.987939,442.416491 C417.636861,442.928225 419.409623,442.556642 420.681693,441.426071 C421.9931,440.285718 422.608514,438.59333 422.325212,436.893352 L418.388793,412.487552 L419.088651,411.76711 C420.427254,410.389136 421.766144,408.971488 423.105307,407.514164 L423.787162,406.772145 L424.789251,406.878607 L448.350185,409.381746 C450.059505,409.552678 451.726349,408.839424 452.768542,407.487389 C453.825266,406.116504 454.103207,404.333051 453.512781,402.7304 L444.848667,379.557004 L445.407519,378.708377 C446.288219,377.371017 446.977293,376.275061 448.517775,373.78659 L449.043166,372.937882 L450.037234,372.847512 L473.632266,370.702591 C475.345705,370.531247 476.846299,369.504934 477.607765,367.982001 C478.37085,366.455832 478.285785,364.646267 477.376783,363.169136 L464.397411,342.145041 L464.787554,341.200485 C465.202751,340.195271 465.552738,339.290056 466.204437,337.56039 C466.651981,336.372568 466.721333,336.189041 466.914996,335.683364 L467.268183,334.761156 L468.215105,334.480893 L490.91883,327.761234 C492.554149,327.281916 493.830519,325.982198 494.28393,324.338584 C494.739078,322.688671 494.303753,320.916274 493.119953,319.675921 L476.29362,301.647707 L476.475466,300.657656 C476.955189,298.045829 477.223711,296.482084 477.456473,294.852751 L477.601033,293.840833 L478.505849,293.365247 L499.46529,282.34865 C500.982466,281.561966 501.974193,280.043384 502.086924,278.352579 C502.202239,276.536366 501.442526,274.894157 500.05825,273.905389 L500.05097,273.900164 L480.001309,259.442867 L479.980947,258.445118 C479.949237,256.891338 479.936922,256.319057 479.91657,255.513116 C479.889359,254.435573 479.859531,253.49301 479.823184,252.602509 L479.782168,251.597614 L480.564378,250.96544 L499.009223,236.058507 C500.337066,234.984932 501.014113,233.288423 500.788617,231.597204 C500.560189,229.883995 499.477254,228.411515 497.925187,227.706026 L475.414283,217.424803 L475.210873,216.428095 C474.828983,214.556831 474.40135,212.681077 473.918365,210.749138 L473.671921,209.763361 L474.322757,208.983038 L489.504971,190.78029 C490.615978,189.441383 490.947022,187.670682 490.379054,186.051228 C489.841528,184.438651 488.474032,183.189042 486.807095,182.793497 L462.816029,177.116855 L462.416788,176.198601 C461.231285,173.471944 460.699346,172.270156 460.013661,170.800831 L459.587174,169.886931 L460.068441,169.000654 L471.361205,148.204495 C472.176264,146.714905 472.153079,144.906478 471.295711,143.391794 C470.451268,141.899945 468.904068,140.96389 467.201572,140.907136 L442.538147,140.036662 L441.967793,139.201502 C440.786421,137.471635 439.665343,135.896327 438.56093,134.423777 L437.947528,133.605908 L438.251196,132.629712 L445.28699,110.011822 C445.798724,108.362901 445.42714,106.590138 444.29657,105.318068 C443.156217,104.006661 441.463829,103.391247 439.767117,103.67402 L415.359537,107.652165 L414.637609,106.950863 C413.259635,105.612259 411.841987,104.27337 410.384663,102.934207 L409.642644,102.252352 L409.749105,101.250262 L412.252245,77.6893291 C412.423177,75.9800085 411.709923,74.3131651 410.357888,73.2709714 C408.987002,72.2142474 407.20355,71.9363067 405.600898,72.5267328 L382.427502,81.1908469 L381.578875,80.631995 C380.241515,79.7512945 379.145559,79.0622203 376.657088,77.5217383 L375.808381,76.9963481 L375.718011,76.0022795 L373.57309,52.4072474 C373.401746,50.6938092 372.375433,49.1932148 370.8525,48.4317483 C369.326331,47.6686641 367.516766,47.7537291 366.039635,48.6627303 L345.035524,61.6297652 L344.105705,61.2659228 C342.587878,60.6719906 341.351872,60.1960953 338.553863,59.1245173 L337.631655,58.7713311 L337.351392,57.8244087 L330.631733,35.1206834 C330.152415,33.4853643 328.852697,32.2089945 327.209083,31.7555837 C325.55917,31.3004353 323.786773,31.735761 322.54642,32.9195603 L304.518205,49.7458936 L303.528155,49.5640476 C300.916328,49.0843242 299.352582,48.8158023 297.72325,48.5830404 L296.711332,48.4384808 L296.235746,47.533665 L285.219149,26.5742233 C284.432465,25.0570476 282.913883,24.0653203 281.216769,23.9521794 C279.502214,23.8378758 277.83183,24.6142515 276.850168,25.9885441 L262.392871,46.0382047 L261.395121,46.0585669 C259.841342,46.0902767 259.269061,46.1025916 258.46312,46.1229436 C257.385577,46.1501543 256.443013,46.1799823 255.552512,46.2163293 L254.547618,46.2573454 L253.915444,45.4751355 L239.008511,27.0302907 C237.934936,25.7024475 236.238427,25.0254006 234.547208,25.2508965 C232.833999,25.4793243 231.361519,26.5622595 230.65603,28.1143263 L220.374807,50.6252306 L219.378099,50.8286404 C217.506835,51.210531 215.631081,51.638164 213.699142,52.1211489 L212.713365,52.3675932 L211.933042,51.7167565 L193.714068,36.5209337 C192.423652,35.4268852 190.622964,35.0916922 189.001231,35.6604597 C187.388655,36.1979853 186.139046,37.5654815 185.743501,39.2324185 L180.066859,63.2234851 L179.148605,63.6227257 C176.421948,64.8082288 175.22016,65.3401679 173.750835,66.0258526 L172.836935,66.4523394 L171.950658,65.9710724 L151.154499,54.6783089 C149.664908,53.8632499 147.856482,53.8864349 146.341798,54.7438031 C144.849949,55.5882458 143.913893,57.1354456 143.85714,58.837942 L142.986666,83.5013669 L142.151506,84.0717202 C140.421639,85.2530923 138.846331,86.3741709 137.373781,87.4785833 L136.555911,88.0919853 L135.579716,87.788318 L112.961826,80.7525241 C111.312904,80.2407898 109.540142,80.6123732 108.268072,81.7429434 C106.956665,82.883297 106.341251,84.5756849 106.624023,86.272397 L110.602169,110.679976 L109.900867,111.401905 C108.562263,112.779879 107.223374,114.197527 105.884211,115.654851 L105.202356,116.39687 L104.200266,116.290408 L80.6393329,113.787269 C78.9300123,113.616337 77.2631689,114.329591 76.2209752,115.681626 C75.1642512,117.052511 74.8863105,118.835964 75.4767366,120.438615 L84.1408507,143.612011 L83.5819988,144.460638 C82.7012983,145.797998 82.0122242,146.893954 80.4717421,149.382425 L79.9463519,150.231133 L78.9522833,150.321502 L55.3572512,152.466424 C53.643813,152.637768 52.1432186,153.664081 51.3817521,155.187014 C50.6186679,156.713182 50.7037329,158.522748 51.6127341,159.999879 L64.579769,181.003989 L64.2159266,181.933809 C63.9468259,182.621511 63.6662572,183.344131 63.3606528,184.135986 C63.003706,185.060875 62.7178955,185.805728 62.0745211,187.485651 L61.7213349,188.407859 L60.7744125,188.688122 L38.0706872,195.407781 C36.4353681,195.887098 35.1589983,197.186816 34.7055875,198.830431 C34.2504391,200.480344 34.6857648,202.252741 35.8695641,203.493094 L52.6958974,221.521308 L52.5140514,222.511359 C52.034328,225.123186 51.7658061,226.686931 51.5330442,228.316264 L51.3884846,229.328181 L50.4836688,229.803768 L29.5242271,240.820365 C28.0070514,241.607049 27.0153241,243.125631 26.9021832,244.822745 C26.7878796,246.537299 27.5642553,248.207684 28.9385479,249.189346 L48.9882085,263.646642 L49.0085707,264.644392 C49.0402805,266.198172 49.0525954,266.770453 49.0729474,267.576394 C49.1001581,268.653937 49.1299861,269.5965 49.1663331,270.487001 L49.2073492,271.491896 L48.4261539,272.12325 L48.4241248,272.12489 Z"></path></g> </g> <path fill="#36245B" id="conf" fill-rule="nonzero" d="M194.66,367.65 L189.82,364.16 C189.81,363.67 189.8,363.17 189.78,362.68 L194.42,358.93 C194.89,358.55 195.13,357.95 195.05,357.35 C194.97,356.75 194.59,356.23 194.04,355.98 L188.61,353.5 C188.51,353.01 188.4,352.53 188.28,352.05 L192.1,347.47 C192.49,347 192.61,346.37 192.41,345.8 C192.22,345.23 191.74,344.79 191.15,344.65 L185.36,343.28 C185.16,342.82 184.96,342.36 184.75,341.91 L187.59,336.68 C187.88,336.15 187.87,335.51 187.57,334.98 C187.27,334.45 186.72,334.12 186.12,334.1 L180.17,333.89 C179.89,333.48 179.6,333.07 179.3,332.67 L181.07,326.98 C181.25,326.4 181.12,325.77 180.72,325.32 C180.32,324.86 179.72,324.64 179.12,324.74 L173.23,325.7 C172.88,325.36 172.52,325.02 172.15,324.68 L172.78,318.75 C172.84,318.15 172.59,317.56 172.11,317.19 C171.63,316.82 171,316.72 170.43,316.93 L164.84,319.02 C164.43,318.75 164.01,318.49 163.59,318.23 L163.05,312.29 C162.99,311.69 162.63,311.16 162.09,310.89 C161.55,310.62 160.91,310.65 160.39,310.97 L155.32,314.1 C154.86,313.92 154.39,313.74 153.92,313.56 L152.23,307.85 C152.06,307.27 151.6,306.82 151.02,306.66 C150.44,306.5 149.81,306.65 149.37,307.07 L145.02,311.13 C144.53,311.04 144.03,310.95 143.54,310.88 L140.77,305.61 C140.49,305.07 139.95,304.72 139.35,304.68 C138.75,304.64 138.16,304.91 137.81,305.4 L134.32,310.24 C133.83,310.25 133.33,310.26 132.84,310.28 L129.09,305.64 C128.71,305.17 128.11,304.93 127.51,305.01 C126.91,305.09 126.39,305.47 126.14,306.02 L123.66,311.45 C123.17,311.55 122.69,311.66 122.21,311.78 L117.63,307.96 C117.17,307.57 116.53,307.45 115.96,307.65 C115.39,307.84 114.95,308.32 114.81,308.91 L113.44,314.7 C112.98,314.9 112.52,315.1 112.07,315.31 L106.84,312.47 C106.31,312.18 105.67,312.19 105.14,312.49 C104.61,312.79 104.28,313.34 104.26,313.94 L104.05,319.89 C103.64,320.17 103.23,320.46 102.83,320.76 L97.14,318.99 C96.56,318.81 95.93,318.94 95.48,319.34 C95.02,319.74 94.8,320.34 94.9,320.94 L95.86,326.83 C95.52,327.18 95.18,327.54 94.84,327.91 L88.91,327.28 C88.31,327.22 87.72,327.47 87.35,327.95 C86.98,328.43 86.88,329.06 87.09,329.63 L89.18,335.22 C88.91,335.63 88.65,336.05 88.39,336.47 L82.45,337.01 C81.85,337.07 81.32,337.43 81.05,337.97 C80.78,338.51 80.81,339.15 81.13,339.67 L84.26,344.74 C84.08,345.2 83.9,345.67 83.72,346.14 L78.01,347.83 C77.43,348 76.98,348.46 76.82,349.04 C76.66,349.62 76.81,350.25 77.23,350.69 L81.29,355.04 C81.2,355.53 81.11,356.03 81.04,356.52 L75.77,359.29 C75.23,359.57 74.88,360.11 74.84,360.71 C74.8,361.31 75.07,361.9 75.56,362.25 L80.4,365.74 C80.41,366.23 80.42,366.73 80.44,367.22 L75.8,370.97 C75.33,371.35 75.09,371.95 75.17,372.55 C75.25,373.15 75.63,373.67 76.18,373.92 L81.61,376.4 C81.71,376.89 81.82,377.37 81.94,377.85 L78.12,382.43 C77.73,382.89 77.61,383.53 77.81,384.1 C78,384.67 78.48,385.11 79.06,385.25 L84.85,386.62 C85.05,387.08 85.25,387.54 85.46,387.99 L82.62,393.22 C82.33,393.75 82.34,394.39 82.64,394.92 C82.94,395.45 83.49,395.78 84.09,395.8 L90.04,396.01 C90.32,396.42 90.61,396.83 90.91,397.23 L89.14,402.92 C88.96,403.5 89.09,404.13 89.49,404.58 C89.89,405.04 90.49,405.26 91.09,405.16 L96.98,404.2 C97.33,404.55 97.69,404.88 98.06,405.22 L97.43,411.15 C97.37,411.75 97.62,412.34 98.1,412.71 C98.58,413.08 99.21,413.18 99.78,412.97 L105.37,410.88 C105.78,411.15 106.2,411.41 106.62,411.67 L107.16,417.61 C107.21,418.21 107.58,418.74 108.12,419.01 C108.66,419.28 109.3,419.25 109.82,418.93 L114.89,415.8 C115.35,415.98 115.82,416.16 116.29,416.34 L117.98,422.05 C118.15,422.63 118.61,423.08 119.19,423.24 C119.77,423.4 120.4,423.25 120.84,422.83 L125.19,418.78 C125.68,418.87 126.18,418.96 126.67,419.03 L129.44,424.3 C129.72,424.84 130.26,425.19 130.86,425.23 C131.46,425.27 132.05,425 132.4,424.51 L135.89,419.67 C136.38,419.66 136.88,419.65 137.37,419.63 L141.12,424.27 C141.5,424.74 142.1,424.98 142.7,424.9 C143.3,424.82 143.82,424.44 144.07,423.89 L146.55,418.46 C147.04,418.36 147.52,418.25 148,418.13 L152.58,421.95 C153.04,422.34 153.68,422.46 154.25,422.26 C154.82,422.07 155.26,421.59 155.4,421.01 L156.77,415.22 C157.23,415.02 157.69,414.82 158.14,414.61 L163.37,417.45 C163.9,417.74 164.54,417.73 165.07,417.43 C165.59,417.13 165.93,416.58 165.95,415.98 L166.16,410.03 C166.57,409.75 166.98,409.46 167.38,409.16 L173.07,410.93 C173.65,411.11 174.28,410.98 174.73,410.58 C175.19,410.18 175.41,409.58 175.31,408.98 L174.36,403.09 C174.7,402.74 175.04,402.38 175.38,402.01 L181.31,402.64 C181.91,402.7 182.5,402.45 182.87,401.97 C183.24,401.49 183.34,400.86 183.13,400.29 L181.04,394.7 C181.31,394.29 181.57,393.87 181.83,393.45 L187.77,392.91 C188.37,392.85 188.9,392.49 189.17,391.95 C189.44,391.41 189.41,390.77 189.09,390.25 L185.96,385.18 C186.15,384.72 186.32,384.25 186.5,383.78 L192.21,382.09 C192.79,381.92 193.24,381.46 193.4,380.88 C193.56,380.3 193.41,379.67 192.99,379.23 L188.93,374.88 C189.02,374.39 189.11,373.89 189.18,373.4 L194.45,370.63 C194.99,370.35 195.34,369.81 195.38,369.21 C195.42,368.58 195.15,368 194.66,367.65 Z M126.36,316.92 C127.61,315.38 129.87,315.15 131.41,316.4 C132.95,317.65 133.18,319.92 131.93,321.46 C130.68,323 128.42,323.23 126.88,321.98 C125.34,320.72 125.11,318.46 126.36,316.92 Z M87.69,358.64 C86.67,356.94 87.21,354.73 88.91,353.71 C90.61,352.68 92.81,353.23 93.84,354.93 C94.86,356.63 94.32,358.84 92.62,359.86 C90.92,360.88 88.71,360.34 87.69,358.64 Z M114.38,408.29 C112.51,408.95 110.46,407.96 109.81,406.09 C109.16,404.22 110.14,402.17 112.01,401.51 C113.88,400.85 115.93,401.84 116.58,403.71 C117.24,405.59 116.25,407.64 114.38,408.29 Z M165.65,401.98 C163.68,401.81 162.21,400.07 162.38,398.09 C162.55,396.11 164.29,394.65 166.26,394.82 C168.23,394.99 169.7,396.73 169.53,398.71 C169.36,400.69 167.62,402.15 165.65,401.98 Z M170.21,391.3 L162.47,390.63 C160.67,390.48 159.09,391.81 158.93,393.61 L158.2,402.18 C153,405.38 147.06,407.54 140.61,408.36 C134.01,409.19 127.58,408.53 121.63,406.63 L118.79,398.52 C118.19,396.81 116.33,395.91 114.62,396.51 L107.46,399.02 C105.92,397.78 90.9,386.49 90.9,365.34 L98.14,360.96 C99.69,360.03 100.18,358.01 99.25,356.46 C99.25,356.46 96.8,351.9 94.35,347.32 C99.97,333.32 112.06,325.53 121.5,322.49 L127.71,327.55 C129.11,328.69 131.17,328.48 132.31,327.08 L137.7,320.44 C150.85,321.21 162.74,327.83 170.4,338.01 L167.4,348.02 C166.88,349.75 167.86,351.58 169.59,352.1 L178.13,354.67 C178.45,356.09 182.5,379.02 170.21,391.3 Z M179.14,347.24 C178.57,349.14 176.57,350.22 174.67,349.65 C172.77,349.08 171.7,347.08 172.26,345.18 C172.83,343.28 174.83,342.2 176.73,342.77 C178.63,343.34 179.71,345.34 179.14,347.24 Z M43.07,385.6 C29.2,385.6 21.73,376.21 21.73,358.92 C21.73,341.63 27.71,332.24 38.8,332.24 C49.79,332.24 54.38,336.83 55.98,344.62 L55.98,345.05 L70.81,345.05 L70.81,318.59 L57.15,318.38 L57.04,320.94 L57.04,324.89 C51.39,321.15 44.88,319.45 38.79,319.45 C13.82,319.45 0.37,333.32 0.37,358.93 C0.37,384.54 14.56,398.41 40.92,398.41 C56.71,398.41 67.92,389.66 74,379.1 L62.9,372.7 C59.72,378.24 53.42,385.6 43.07,385.6 Z M264.26,320.72 L249.32,320.4 L249.11,334.17 L251.67,333.85 C254.45,333.53 255.94,333.32 257.86,333.32 L257.86,366.29 L220.72,320.4 L210.9,320.72 L195.96,320.29 L195.75,330.64 L198.31,331.39 C202.36,332.56 204.5,335.44 204.5,340.78 L204.5,384.53 C202.58,384.53 201.09,384.32 198.31,383.99 L195.75,383.67 L195.96,397.44 L210.9,397.23 L225.84,397.44 L226.05,383.67 L223.5,384 C220.73,384.32 219.23,384.54 217.31,384.54 L217.31,350.82 L254.98,397.35 L257.86,397.35 C258.29,397.35 270.67,397.67 270.67,397.67 L270.67,333.32 C272.59,333.32 274.08,333.53 276.86,333.85 L279.42,334.17 L279.21,320.4 L264.26,320.72 Z M356.04,319.44 C356.04,319.44 317.73,320.51 309.19,320.51 L283.69,320.51 L283.16,334.49 L285.72,334.06 C288.5,333.52 290.1,333.31 292.01,333.31 L292.01,384.53 C290.09,384.53 288.6,384.32 285.82,383.89 L283.26,383.46 L283.79,397.44 C283.79,397.44 298.41,397.12 302.68,397.12 C306.95,397.12 321.57,397.44 321.57,397.44 L322.1,383.46 L319.54,383.89 C316.77,384.32 315.27,384.53 313.35,384.53 L313.35,365.86 C321.99,365.86 326.9,373.01 330.64,379.41 L335.76,377.27 L335.76,348.03 L330.64,344.83 C326.91,351.23 322.21,357.32 313.35,357.32 L313.35,333.31 C332.56,333.31 343.23,334.16 345.79,350.38 L358.38,348.78 L356.04,319.44 Z"></path> <path fill="#D13B61" id="rust" fill-rule="nonzero" d="M105.671,205.746 C105.671,201.033 109.609,198.812 114.254,197.533 C115.365,197.229 117.822,196.489 117.822,194.772 C117.822,193.325 116.139,192.854 114.625,192.854 C111.864,192.854 110.013,194.166 108.094,195.782 L105.57,192.753 C108.027,190.834 110.417,189.05 114.49,189.05 C118.395,189.05 122.4,190.7 122.4,194.739 C122.4,199.081 118.025,200.394 114.793,201.404 C111.965,202.312 110.316,203.255 110.316,204.972 L110.316,205.174 L122.03,205.174 L122.03,208.809 L105.671,208.809 L105.671,205.746 Z M178.3702,205.5101 C181.6352,205.5101 184.3952,202.6151 184.3952,199.2491 C184.3952,195.8161 181.6352,193.0221 178.3702,193.0221 C175.0372,193.0221 172.3782,195.8161 172.3782,199.2491 C172.3782,202.6151 175.0372,205.5101 178.3702,205.5101 Z M178.3702,189.0501 C184.1262,189.0501 188.9732,193.5601 188.9732,199.2491 C188.9732,204.9041 184.1262,209.4481 178.3702,209.4481 C172.5802,209.4481 167.8002,204.9041 167.8002,199.2491 C167.8002,193.5601 172.5802,189.0501 178.3702,189.0501 Z M233.1612,192.2479 L239.0182,189.6889 L243.1582,189.6889 L243.1582,208.8089 L238.5472,208.8089 L238.5472,194.0319 L234.1382,195.9509 L233.1612,192.2479 Z M304.5474,196.8256 C303.6724,194.2676 301.2824,192.8536 298.6564,192.8536 C296.1324,192.8536 294.3144,194.4696 294.3144,196.1186 C294.3144,197.3306 295.3584,198.7786 298.2524,198.7786 C300.6094,198.7786 302.8644,197.8016 304.5474,196.8256 Z M292.7664,204.5676 C294.2474,205.2416 296.1654,205.6786 298.0514,205.6786 C301.5854,205.6786 304.6484,203.4906 304.8844,199.5856 C303.0664,200.9996 300.6434,202.2786 297.5794,202.2786 C292.3964,202.2786 289.7364,199.1486 289.7364,196.1186 C289.7364,192.1806 293.4394,189.0506 298.6564,189.0506 C304.0754,189.0506 309.2604,192.4496 309.2604,198.9126 C309.2604,205.5436 303.9424,209.4486 298.1514,209.4486 C294.7524,209.4486 292.1264,208.3376 290.7464,207.7316 L292.7664,204.5676 Z M41.95,206.65 C42.48,206.65 59.0499999,206.25 59.5800002,206.25 C81.0500002,206.25 95.2299999,217.25 95.2299999,234.74 C95.2299999,250.38 82.9000001,260.32 64.8800001,262.7 C81.3100001,265.35 86.48,278.47 95.3599998,278.47 C97.6100001,278.47 99.9999999,277.41 102.78,276.48 L103.18,302.99 C98.8100002,304.58 93.9000002,305.64 89.2600002,305.64 C76.4100001,305.64 71.3700001,295.04 65.0100001,284.83 C59.7100002,276.22 52.9499998,268 43.81,266.41 L42.22,266.14 L42.22,287.08 C44.61,287.08 46.4600002,286.81 49.9100002,286.42 L53.0900002,286.02 L52.8199998,303.12 L28.97,302.72 L2.46,303.12 L2.2,285.76 L5.37999998,286.29 C8.82,286.95 13.33,287.09 15.72,287.09 L15.72,223.21 C13.33,223.21 9.09,223.47 5.64999998,224.14 L2.21,224.93 L2.47,207.57 L41.95,206.65 Z M42.21,252.11 C44.73,252.11 47.38,252.24 49.9000002,252.24 C62.09,252.24 68.72,247.47 68.72,237 C68.72,227.86 62.3599999,222.55 49.7700002,222.55 C47.25,222.55 44.73,222.68 42.22,222.68 L42.22,252.11 L42.21,252.11 Z M201.25,239.25 L201.25,286.96 C203.64,286.96 208.14,286.83 211.59,286.17 L214.77,285.64 L214.51,302.87 L185.35,304.2 L178.06,289.51 L148.24,301.31 C126.9,301.31 119.08,292.56 119.08,268.84 L119.08,239.27 C116.69,239.27 112.19,239.4 108.74,240.07 L105.56,240.6 L105.82,223.24 L132.33,223.64 L146.91,223.24 C146.91,228.81 145.59,234.11 145.59,239.27 L145.59,259.97 C145.59,278.26 149.57,285.02 160.17,285.02 L174.75,279.59 L174.75,239.28 C172.36,239.28 170.51,239.55 167.06,239.94 L163.88,240.34 L164.15,223.25 L188.01,223.65 L202.59,223.25 C202.58,228.78 201.25,234.08 201.25,239.25 Z M292.18,249.99 L276.54,249.99 C276.54,242.97 267.26,236.74 258.38,236.74 C249.77,236.74 245.13,238.73 245.13,242.57 C245.13,256.49 298.8,250.12 298.8,281.14 C298.8,296.25 284.88,304.33 259.04,304.33 C251.22,304.33 241.55,301.15 235.05,295.72 L234.65,304.33 L219.28,304.6 L219.28,273.85 L236.38,273.85 C237.44,284.45 248.04,289.75 259.04,289.75 C268.58,289.75 273.62,287.63 273.62,283.79 C273.62,270.54 221.93,276.5 221.93,245.22 C221.93,230.24 234.92,222.16 259.04,222.16 C265.8,222.16 272.16,224.15 277.73,228.12 L278,222.16 L292.18,221.89 L292.18,249.99 Z M341.09,223.61 L357.13,223.34 L357.4,240.17 L354.22,239.9 C350.77,239.63 343.62,239.37 341.23,239.37 L341.23,276.48 C341.23,284.7 349.98,286.02 355.54,286.02 L355.94,301.92 C352.36,303.24 346.93,304.3 340.96,304.3 C328.64,304.3 314.72,299.53 314.72,282.3 L314.72,239.36 C312.33,239.36 306.5,239.62 303.06,239.89 L299.88,240.16 L300.15,223.33 L316.19,223.6 L320.03,207.56 L340.84,207.56 L341.09,223.61 Z"></path> <path fill="#FDA28C" fill-rule="nonzero" d="M393.6012,95.94 C394.1612,95.94 394.7312,95.91 395.2912,95.85 C399.6112,95.4 403.5012,93.3 406.2412,89.93 C411.8912,82.97 410.8312,72.69 403.8712,67.03 C400.5012,64.29 396.2812,63.02 391.9512,63.47 C387.6312,63.92 383.7412,66.02 381.0012,69.39 C375.3512,76.35 376.4112,86.63 383.3712,92.29 C386.2912,94.67 389.8712,95.94 393.6012,95.94 Z M384.0912,71.9 C386.1612,69.35 389.0912,67.77 392.3512,67.43 C392.7812,67.38 393.2012,67.37 393.6312,67.37 C396.4412,67.37 399.1412,68.33 401.3512,70.13 C406.6012,74.41 407.4012,82.17 403.1412,87.43 C401.0712,89.98 398.1412,91.57 394.8812,91.9 C391.6012,92.22 388.4312,91.28 385.8812,89.21 C380.6312,84.92 379.8312,77.16 384.0912,71.9 Z M362.6012,90.96 C325.7212,102.83 293.2012,127.02 271.0512,159.07 L268.5112,162.74 L457.8212,138.79 C462.5212,138.2 479.5912,138.27 495.6612,146.17 C506.3712,151.45 524.7712,163.8 527.7312,187.16 C529.8912,204.21 520.2012,221.78 498.9512,239.4 L496.7812,241.19 L500.2212,243.26 C515.0712,252.18 524.0312,257.56 532.8012,285.76 C534.6912,290.98 542.4812,294.52 550.6012,294.52 C552.6612,294.52 554.7512,294.29 556.7612,293.8 C571.4812,290.23 577.6512,280.62 575.6012,264.42 L574.5612,256.22 C574.4912,255.63 574.5712,255.35 574.6012,255.3 C574.6012,255.3 574.6912,255.24 574.9712,255.2 L594.7012,252.7 L594.6012,250.85 C594.3712,246.42 593.9712,242 593.4212,237.71 C592.6912,231.93 591.6612,226.08 590.3512,220.33 L590.0912,219.2 L555.0312,208.66 C549.2112,206.91 545.9012,200.74 547.6412,194.92 L559.8512,154.14 L559.2412,153.34 C527.7412,111.48 479.8112,85.73 427.7212,82.69 L426.7012,82.63 L404.6212,109.83 C402.7612,112.12 400.1312,113.54 397.2112,113.84 C394.3012,114.15 391.4212,113.28 389.1412,111.43 L363.6212,90.64 L362.6012,90.96 Z M397.6312,117.8 C401.6112,117.39 405.2012,115.45 407.7312,112.33 L428.5212,86.72 C478.7012,89.94 524.8612,114.74 555.4612,154.93 L543.8312,193.78 C541.4612,201.71 545.9612,210.1 553.8812,212.48 L586.7112,222.35 C587.8712,227.61 588.8012,232.94 589.4612,238.21 C589.9212,241.81 590.2712,245.5 590.5012,249.21 L574.4612,251.24 C572.6012,251.47 571.6512,252.46 571.1812,253.24 C570.6212,254.17 570.4312,255.34 570.6012,256.71 L571.6412,264.91 C573.9412,283.11 564.3912,287.83 555.8212,289.91 C547.4312,291.95 538.0512,288.51 536.5812,284.47 C527.6612,255.81 518.0012,249.29 503.6312,240.64 C524.5112,222.69 533.9412,204.53 531.6812,186.64 C528.4912,161.43 508.8512,148.21 497.4212,142.58 C480.3812,134.2 462.7012,134.14 457.3212,134.82 L276.9412,157.64 C298.2912,128.43 328.5812,106.32 362.7912,95.07 L386.6312,114.49 C389.7412,117.04 393.6512,118.2 397.6312,117.8 Z M578.7612,203.4 C581.4112,203.4 584.0312,202.74 586.4312,201.45 C590.2612,199.39 593.0512,195.96 594.3012,191.79 C596.8712,183.19 591.9812,174.1 583.4012,171.51 C579.2412,170.26 574.8512,170.71 571.0312,172.76 C567.2012,174.82 564.4012,178.25 563.1512,182.42 C560.5812,191.02 565.4712,200.11 574.0512,202.7 C575.6112,203.17 577.1912,203.4 578.7612,203.4 Z M566.9812,183.57 C567.9212,180.42 570.0412,177.83 572.9312,176.27 C575.8112,174.72 579.1312,174.38 582.2612,175.33 C588.7412,177.28 592.4412,184.15 590.4912,190.64 C589.5512,193.79 587.4412,196.38 584.5512,197.94 C581.6712,199.49 578.3412,199.83 575.2212,198.88 C568.7312,196.94 565.0412,190.07 566.9812,183.57 Z M446.3912,224.58 C452.2912,220.69 455.0112,215.49 454.2612,209.54 C452.2812,193.88 431.4812,192.86 428.4012,193.25 L367.6212,200.94 L372.2712,237.7 L428.7612,230.55 C432.7212,230.05 440.2812,228.61 446.3912,224.58 Z M375.7212,233.25 L372.0712,204.4 L428.8912,197.21 C431.3412,196.91 448.7512,197.79 450.3012,210.05 C450.8612,214.44 448.8012,218.22 444.1912,221.26 C440.2312,223.88 434.4212,225.82 428.2512,226.6 L375.7212,233.25 Z M529.5112,382.19 C526.1912,384.99 524.1512,388.92 523.7912,393.25 C523.0312,402.19 529.6712,410.1 538.6012,410.86 C539.0712,410.9 539.5512,410.92 540.0212,410.92 C543.8412,410.92 547.5012,409.59 550.4612,407.09 C553.7812,404.29 555.8112,400.36 556.1812,396.03 C556.9512,387.09 550.3012,379.18 541.3712,378.41 C537.0212,378.04 532.8312,379.39 529.5112,382.19 Z M552.2112,395.7 C551.9312,398.97 550.4012,401.94 547.8912,404.05 C545.3912,406.16 542.2112,407.17 538.9412,406.89 C532.2012,406.31 527.1912,400.34 527.7612,393.59 C528.0412,390.32 529.5812,387.35 532.0812,385.24 C534.3112,383.36 537.0712,382.35 539.9612,382.35 C540.3112,382.35 540.6712,382.36 541.0312,382.4 C547.7712,382.97 552.7912,388.94 552.2112,395.7 Z M558.5012,367.62 C563.6212,360.9 568.3012,353.76 572.4012,346.4 L574.8612,341.99 L570.0512,343.53 C569.2712,343.78 568.5412,343.95 567.8612,344.03 L496.9012,353.01 C486.6012,354.25 474.3212,340.5 470.6112,332.66 C468.3712,328.31 464.7012,317.42 461.7512,308.67 C460.0412,303.59 458.5612,299.19 457.5912,296.72 C448.6712,273.8 430.1912,274.25 424.7412,274.95 L377.7212,280.9 L382.2612,316.78 L425.8812,311.26 C426.2112,311.22 426.4412,311.21 426.5912,311.2 L432.9012,361.08 C432.7512,361.12 432.5212,361.16 432.2012,361.2 L358.0012,370.59 L358.0012,374.61 L432.7012,365.16 C436.7612,364.64 437.0712,362.23 436.8912,360.83 L430.5212,310.45 C430.3412,309.06 429.4712,306.8 425.3812,307.31 L385.7112,312.33 L382.1712,284.36 L425.2312,278.91 C429.9512,278.32 445.9912,277.93 453.8612,298.18 C454.8012,300.57 456.2712,304.91 457.9612,309.95 C461.1112,319.29 464.6712,329.88 467.0212,334.44 C471.2412,343.37 485.0112,358.57 497.3912,356.98 L566.7512,348.2 C563.4612,353.76 559.8512,359.17 555.9712,364.34 L526.3012,361.79 C522.3212,361.43 518.4212,362.68 515.3612,365.26 C512.3012,367.84 510.4212,371.47 510.0812,375.47 L507.2612,408.52 C486.3812,421.2 463.4212,429.2 438.9712,432.29 C413.9712,435.45 389.2012,433.26 365.3212,425.77 L357.7912,404.27 L353.5712,404.27 L362.2212,428.97 L363.1712,429.27 C380.6712,434.87 398.6512,437.68 416.8612,437.68 C424.3712,437.68 431.9212,437.2 439.4812,436.24 C464.8312,433.03 488.6212,424.67 510.2112,411.39 L511.0712,410.86 L514.0612,375.8 C514.3112,372.86 515.6912,370.2 517.9412,368.3 C520.1912,366.41 523.0412,365.49 525.9712,365.75 L557.8312,368.5 L558.5012,367.62 Z M337.2512,405.81 C335.3812,404.91 333.3912,404.41 331.3812,404.26 L330.1412,404.26 C328.3512,404.27 326.5612,404.51 324.8312,405.12 C316.3712,408.09 311.9112,417.4 314.8712,425.87 C316.3112,429.98 319.2612,433.28 323.1812,435.16 C325.4112,436.23 327.8012,436.77 330.2012,436.77 C332.0112,436.77 333.8312,436.46 335.5912,435.85 C344.0512,432.88 348.5212,423.57 345.5512,415.1 C344.1112,411 341.1612,407.7 337.2512,405.81 Z M334.2712,432.09 C331.1812,433.18 327.8612,432.99 324.9112,431.57 C321.9512,430.15 319.7212,427.65 318.6312,424.55 C316.3912,418.15 319.7612,411.12 326.1512,408.88 C327.4812,408.41 328.8512,408.18 330.2212,408.18 C332.0412,408.18 333.8412,408.59 335.5312,409.4 C338.4912,410.82 340.7112,413.31 341.8012,416.41 C344.0312,422.82 340.6512,429.85 334.2712,432.09 Z"></path> </g> </svg>
